<?xml version="1.0" encoding="UTF-8" standalone="no"?>
<!-- Created with Inkscape (http://www.inkscape.org/) -->

<svg
   width="23.620996mm"
   height="8.913188mm"
   viewBox="0 0 23.620997 8.913188"
   version="1.1"
   id="svg1"
   xml:space="preserve"
   inkscape:version="1.4 (e7c3feb100, 2024-10-09)"
   sodipodi:docname="car-38800411-right.svg"
   xmlns:inkscape="http://www.inkscape.org/namespaces/inkscape"
   xmlns:sodipodi="http://sodipodi.sourceforge.net/DTD/sodipodi-0.dtd"
   xmlns="http://www.w3.org/2000/svg"
   xmlns:svg="http://www.w3.org/2000/svg"><sodipodi:namedview
     id="namedview1"
     pagecolor="#ffffff"
     bordercolor="#000000"
     borderopacity="0.25"
     inkscape:showpageshadow="2"
     inkscape:pageopacity="0.0"
     inkscape:pagecheckerboard="0"
     inkscape:deskcolor="#d1d1d1"
     inkscape:document-units="mm"
     inkscape:zoom="13.575846"
     inkscape:cx="44.638102"
     inkscape:cy="16.868194"
     inkscape:window-width="1920"
     inkscape:window-height="1131"
     inkscape:window-x="0"
     inkscape:window-y="0"
     inkscape:window-maximized="1"
     inkscape:current-layer="layer1" /><defs
     id="defs1" /><g
     inkscape:label="Layer 1"
     inkscape:groupmode="layer"
     id="layer1"
     transform="translate(-90.595783,-142.3911)"><path
       style="fill:#000000;stroke-width:0.1"
       d="m 95.65815,151.27389 c -0.720829,-0.14469 -1.332109,-0.71425 -1.518611,-1.41496 -0.06839,-0.25696 -0.0655,-0.78124 0.0056,-1.02085 0.133777,-0.45063 0.454749,-0.88884 0.825113,-1.12651 1.278904,-0.82067 2.99856,0.12012 2.99856,1.64045 0,0.88625 -0.605609,1.66782 -1.462054,1.88686 -0.283904,0.0726 -0.596959,0.0855 -0.848641,0.035 z m 0.66136,-0.91166 c 0.06948,-0.0704 -0.151239,-0.25173 -0.306432,-0.25173 -0.117512,0 -0.337289,0.1407 -0.337289,0.21593 0,0.10025 0.549956,0.13083 0.643721,0.0358 z m 0.521405,-0.32332 c 0.125072,-0.13389 0.236334,-0.41079 0.18549,-0.46163 -0.0503,-0.0503 -0.26747,0.0449 -0.340589,0.14928 -0.05966,0.0852 -0.07192,0.20318 -0.03529,0.33984 0.02847,0.10622 0.07126,0.10005 0.190391,-0.0275 z m -1.464855,0.0361 c 0.01206,-0.0195 0.02283,-0.1006 0.02393,-0.18019 0.0024,-0.17268 -0.103634,-0.29948 -0.279828,-0.33468 -0.10662,-0.0213 -0.114653,-0.0162 -0.114653,0.072 0,0.22854 0.28931,0.5743 0.370549,0.44285 z m 0.788994,-0.56749 c 0.102307,-0.0953 0.08731,-0.23222 -0.03543,-0.32343 -0.08297,-0.0617 -0.103832,-0.0639 -0.194028,-0.0209 -0.138205,0.0659 -0.162876,0.27735 -0.04223,0.36186 0.107581,0.0754 0.176756,0.0709 0.271679,-0.0175 z m 0.855622,-0.52536 c -0.04626,-0.1544 -0.229923,-0.3886 -0.304746,-0.3886 -0.06329,0 -0.09994,0.24528 -0.0545,0.36479 0.02398,0.0631 0.08945,0.12057 0.187045,0.16426 0.18776,0.0841 0.229315,0.0502 0.172204,-0.14045 z m -1.822748,0.12588 c 0.171779,-0.0718 0.243204,-0.19623 0.213505,-0.37202 -0.0132,-0.0781 -0.03663,-0.14989 -0.05207,-0.15943 -0.08778,-0.0543 -0.353855,0.32498 -0.353855,0.50436 0,0.0903 0.03073,0.0946 0.192417,0.0271 z m 1.067167,-0.60579 c 0.09256,-0.0706 0.110861,-0.10198 0.08067,-0.13835 -0.09047,-0.10901 -0.582186,-0.10325 -0.624612,0.007 -0.01236,0.0322 0.01961,0.0854 0.08183,0.13632 0.138279,0.11307 0.309502,0.11112 0.462106,-0.005 z m 13.037645,2.75438 c -0.70304,-0.15276 -1.32465,-0.78065 -1.47493,-1.48983 -0.0689,-0.32524 -0.0643,-0.54832 0.0179,-0.86999 0.0948,-0.37056 0.25826,-0.66256 0.51435,-0.91865 0.7603,-0.7603 1.97639,-0.76121 2.74306,-0.002 0.77145,0.76389 0.76724,2.00663 -0.009,2.76979 -0.4656,0.45752 -1.14468,0.65117 -1.79104,0.51072 z m 0.73983,-0.89493 c 0.066,-0.0677 -0.16292,-0.25119 -0.31337,-0.25119 -0.11078,0 -0.33035,0.14352 -0.33035,0.21593 0,0.10059 0.55063,0.13075 0.64372,0.0353 z m -0.93626,-0.42257 c 0.0254,-0.18928 -0.0512,-0.3064 -0.23672,-0.36198 -0.0778,-0.0233 -0.15188,-0.032 -0.16459,-0.0193 -0.043,0.043 0.0697,0.30563 0.19283,0.44952 0.13888,0.16225 0.17934,0.149 0.20848,-0.0683 z m 1.43057,0.10964 c 0.1157,-0.12082 0.25544,-0.42862 0.21359,-0.47048 -0.0485,-0.0485 -0.28516,0.0324 -0.34517,0.1181 -0.0297,0.0424 -0.054,0.15023 -0.054,0.2397 0,0.23909 0.0408,0.26385 0.18553,0.11268 z m -0.66018,-0.55402 c 0.10258,-0.10259 0.10834,-0.16266 0.0249,-0.25922 -0.10318,-0.11932 -0.20754,-0.12895 -0.30809,-0.0284 -0.0488,0.0488 -0.0888,0.11403 -0.0888,0.1449 0,0.0726 0.15668,0.22931 0.2293,0.22931 0.0309,0 0.0951,-0.039 0.14272,-0.0866 z m 0.84703,-0.53053 c -0.0693,-0.18135 -0.2139,-0.37066 -0.28321,-0.37066 -0.10184,0 -0.11856,0.30868 -0.0231,0.42656 0.0755,0.0933 0.28869,0.17904 0.33622,0.13525 0.0187,-0.0173 0.006,-0.0961 -0.0299,-0.19115 z m -1.80284,0.14386 c 0.0657,-0.0275 0.13665,-0.082 0.15762,-0.12116 0.0494,-0.0923 0.0494,-0.38225 -3e-5,-0.41277 -0.0594,-0.0367 -0.23115,0.15067 -0.31351,0.34211 -0.10398,0.2417 -0.0684,0.28552 0.15592,0.19182 z m 1.05122,-0.60214 c 0.0534,-0.047 0.097,-0.10047 0.097,-0.1189 0,-0.0457 -0.19706,-0.11098 -0.33514,-0.11098 -0.13149,0 -0.33513,0.0645 -0.33513,0.10615 0,0.0158 0.0488,0.0698 0.10854,0.12002 0.14273,0.1201 0.33078,0.1216 0.46472,0.004 z m -16.164443,1.64209 c -0.04057,-0.057 -0.122558,-0.20787 -0.182202,-0.33532 -0.07473,-0.15969 -0.132062,-0.23691 -0.184407,-0.24838 -0.04178,-0.009 -0.568089,-0.0731 -1.169575,-0.14204 -1.318814,-0.15121 -1.432775,-0.1721 -1.54353,-0.28285 -0.07921,-0.0792 -0.08417,-0.10532 -0.06921,-0.36381 0.01064,-0.18389 0.0027,-0.28677 -0.02342,-0.30291 -0.02448,-0.0151 -0.03954,-0.14588 -0.03954,-0.34334 0,-0.3768 0.05001,-0.50873 0.25411,-0.67038 0.139905,-0.11081 0.139905,-0.11081 0.116116,-0.50236 -0.01308,-0.21535 -0.02633,-0.59793 -0.02944,-0.85016 -0.0067,-0.54225 0.03417,-0.65034 0.299043,-0.79133 0.161141,-0.0858 0.161141,-0.0858 0.326813,-0.6323 0.09112,-0.30059 0.277635,-0.79381 0.414478,-1.09604 0.136843,-0.30222 0.263299,-0.62094 0.281013,-0.70825 0.05173,-0.25497 0.06399,-0.27601 0.182814,-0.31362 0.460414,-0.14573 1.975272,-0.19424 5.192968,-0.16631 4.787602,0.0416 5.840142,0.10043 6.740312,0.37695 0.64461,0.19801 1.53802,0.76114 2.96515,1.86899 0.56502,0.43861 0.59462,0.45649 0.75571,0.45649 0.5278,0 2.94886,0.23833 3.75577,0.36972 0.9571,0.15584 1.60011,0.36225 1.72305,0.5531 0.10033,0.15575 0.19967,0.52172 0.23998,0.88413 0.0397,0.35712 0.0426,0.36513 0.19256,0.52716 0.21254,0.22969 0.22746,0.31009 0.17105,0.92176 -0.0141,0.15318 -0.008,0.25635 0.0164,0.28599 0.0774,0.0933 -0.0513,0.45917 -0.2141,0.60885 -0.0455,0.0419 -0.21775,0.14506 -0.38267,0.22931 -0.29986,0.15318 -0.29986,0.15318 -0.97014,0.16466 -0.67028,0.0115 -0.67028,0.0115 -0.65902,-0.22931 0.0272,-0.58299 -0.22072,-1.19627 -0.66056,-1.63378 -0.46081,-0.45837 -0.92499,-0.65022 -1.5732,-0.65022 -0.6462,0 -1.10976,0.1913 -1.57353,0.64937 -0.61343,0.60587 -0.81433,1.47425 -0.5406,2.33668 0.0385,0.1214 -0.10013,0.0142 -0.17752,-0.13724 -0.038,-0.0744 -0.0716,-0.13978 -0.0746,-0.14524 -0.006,-0.0101 -7.01545,-0.14051 -8.199439,-0.15251 -0.358951,-0.004 -0.71217,-0.014 -0.78493,-0.023 -0.132292,-0.0164 -0.132292,-0.0164 -0.132292,-0.30671 0,-0.5903 -0.202161,-1.09379 -0.613409,-1.52772 -0.285085,-0.30081 -0.535646,-0.46244 -0.91359,-0.58931 -1.327395,-0.44559 -2.724312,0.43281 -2.915515,1.83331 -0.04268,0.31261 -0.0086,0.7042 0.08393,0.96547 0.03008,0.0849 0.05469,0.16824 0.05469,0.1852 0,0.0631 -0.06805,0.0276 -0.139511,-0.0727 z m -2.725045,-1.2793 c 0.06038,-0.0604 0.05234,-0.26012 -0.0131,-0.32557 -0.03158,-0.0316 -0.115073,-0.0554 -0.194028,-0.0554 -0.138591,0 -0.138591,0 -0.138591,0.21166 0,0.21167 0,0.21167 0.151694,0.21167 0.08343,0 0.170745,-0.019 0.194028,-0.0423 z m 22.972888,-0.48684 c 0,-0.20075 -0.004,-0.21166 -0.0859,-0.21166 -0.2321,0 -0.35595,0.15372 -0.27211,0.33774 0.0329,0.0722 0.0639,0.0856 0.19851,0.0856 0.1595,0 0.1595,0 0.1595,-0.21167 z m -0.32592,-1.4552 c -0.0178,-0.32259 -0.11464,-0.69396 -0.22599,-0.86685 -0.0528,-0.0819 -0.0528,-0.0819 -0.99397,-0.0705 -0.9647,0.0116 -1.09995,0.0307 -1.09995,0.15539 0,0.0294 0.0381,0.0887 0.0847,0.13191 0.11131,0.10315 1.19307,0.71051 1.39692,0.78429 0.15087,0.0546 0.70324,0.18436 0.80737,0.18964 0.0396,0.002 0.0455,-0.0598 0.0309,-0.32383 z m -21.558212,-0.28692 c 0.018,-0.013 -0.229418,-1.14623 -0.26436,-1.21087 -0.05036,-0.0932 -0.227846,-0.13403 -0.449867,-0.1036 -0.193102,0.0265 -0.318249,0.10554 -0.393175,0.24843 -0.07049,0.13444 -0.105916,0.83647 -0.04952,0.98137 0.03717,0.0955 0.03871,0.0959 0.435498,0.10583 0.327453,0.008 0.695626,-0.003 0.72142,-0.0212 z m 10.330662,-0.35589 c 0.1815,-0.0654 0.37683,-0.0669 0.52699,-0.004 0.10322,0.0431 0.12885,0.0429 0.1929,-0.002 0.15982,-0.11194 0.0189,-0.26107 -0.18085,-0.19142 -0.15375,0.0536 -0.39614,0.0469 -0.54433,-0.015 -0.10413,-0.0435 -0.14282,-0.045 -0.21892,-0.009 -0.11437,0.0548 -0.13835,0.15649 -0.0523,0.2217 0.0816,0.0618 0.10352,0.0618 0.2765,-5e-4 z m -5.004658,-0.0713 c 0.120385,-0.0628 0.500664,-0.0705 0.627508,-0.0127 0.103865,0.0473 0.196732,-0.007 0.196732,-0.1141 0,-0.0751 -0.123256,-0.15323 -0.183218,-0.11617 -0.108544,0.0671 -0.337892,0.0779 -0.550024,0.0259 -0.202079,-0.0495 -0.229416,-0.0493 -0.30868,0.003 -0.113556,0.0744 -0.110139,0.14636 0.01005,0.21157 0.05336,0.0289 0.09917,0.0533 0.101801,0.054 0.0026,8e-4 0.05026,-0.0223 0.105834,-0.0513 z m 8.126738,-1.44024 c 0,-0.61098 0,-0.61098 -0.23812,-0.78858 -0.66533,-0.49619 -1.29011,-0.78982 -1.89618,-0.89115 -0.24563,-0.0411 -1.95659,-0.12125 -1.98482,-0.093 -0.0221,0.0221 -6.2e-4,0.1494 0.23143,1.37002 0.095,0.49991 0.18303,0.91916 0.19555,0.93168 0.023,0.023 1.66723,0.065 2.97777,0.0761 0.71437,0.006 0.71437,0.006 0.71437,-0.60499 z m -4.63311,0.33582 c -0.0112,-0.11059 -0.0399,-0.6315 -0.0637,-1.15757 -0.0433,-0.9565 -0.0433,-0.9565 -0.35976,-0.97896 -0.17406,-0.0124 -0.774405,-0.0225 -1.334105,-0.0225 -1.017636,0 -1.017636,0 -1.017636,1.14652 0,1.14653 0,1.14653 0.185208,1.15138 0.720695,0.0189 1.972283,0.0494 2.262133,0.0552 0.34832,0.007 0.34832,0.007 0.32788,-0.19412 z m -2.916332,-1.01247 c 0,-1.14652 0,-1.14652 -0.370417,-1.14652 -0.203729,0 -0.37052,0.004 -0.370647,0.009 -1.3e-4,0.005 -0.06352,0.47713 -0.140881,1.04951 -0.07736,0.57238 -0.140753,1.08435 -0.14088,1.13771 -2.3e-4,0.097 -2.3e-4,0.097 0.511297,0.097 0.511528,0 0.511528,0 0.511528,-1.14653 z m -1.373512,1.0848 c 0.0013,-0.0146 0.06949,-0.51859 0.151585,-1.12007 0.149263,-1.09362 0.149263,-1.09362 -0.540308,-1.11125 -0.379264,-0.01 -0.996584,-0.01 -1.371822,0 -0.67749,0.0175 -0.682791,0.0183 -0.759395,0.10744 -0.09537,0.11101 -0.426398,1.3237 -0.420227,1.53945 0.0055,0.1911 0.10914,0.32998 0.340274,0.45585 0.162669,0.0886 0.227591,0.10087 0.639655,0.12107 0.676169,0.0331 1.957558,0.038 1.960238,0.008 z"
       id="path1" /></g></svg>
