<?xml version="1.0" encoding="UTF-8" standalone="no"?>
<!-- Created with Inkscape (http://www.inkscape.org/) -->

<svg
   width="11.125409mm"
   height="23.603762mm"
   viewBox="0 0 11.125409 23.603762"
   version="1.1"
   id="svg1"
   xml:space="preserve"
   inkscape:version="1.4 (e7c3feb100, 2024-10-09)"
   sodipodi:docname="car-38800411-up.svg"
   xmlns:inkscape="http://www.inkscape.org/namespaces/inkscape"
   xmlns:sodipodi="http://sodipodi.sourceforge.net/DTD/sodipodi-0.dtd"
   xmlns="http://www.w3.org/2000/svg"
   xmlns:svg="http://www.w3.org/2000/svg"><sodipodi:namedview
     id="namedview1"
     pagecolor="#ffffff"
     bordercolor="#000000"
     borderopacity="0.25"
     inkscape:showpageshadow="2"
     inkscape:pageopacity="0.0"
     inkscape:pagecheckerboard="0"
     inkscape:deskcolor="#d1d1d1"
     inkscape:document-units="mm"
     inkscape:zoom="9.8418278"
     inkscape:cx="21.032678"
     inkscape:cy="44.605535"
     inkscape:window-width="1920"
     inkscape:window-height="1131"
     inkscape:window-x="0"
     inkscape:window-y="0"
     inkscape:window-maximized="1"
     inkscape:current-layer="layer1" /><defs
     id="defs1" /><g
     inkscape:label="Layer 1"
     inkscape:groupmode="layer"
     id="layer1"
     transform="translate(-100.38183,-137.42676)"><path
       style="fill:#000000;stroke-width:0.1"
       d="m 103.79947,161.01308 c -0.13582,-0.006 -0.54682,-0.0355 -0.91334,-0.066 -0.80677,-0.067 -0.97705,-0.11968 -1.2409,-0.38354 -0.23603,-0.23603 -0.31619,-0.45229 -0.34732,-0.93716 -0.0131,-0.20373 -0.0547,-0.83079 -0.0926,-1.39347 -0.0494,-0.73438 -0.0689,-1.4105 -0.0691,-2.39611 -2.4e-4,-1.25795 -0.005,-1.37878 -0.062,-1.44127 -0.052,-0.0574 -0.0617,-0.13904 -0.0617,-0.51586 0,-0.38042 0.0101,-0.46301 0.067,-0.54997 0.0646,-0.0985 0.0661,-0.17098 0.0417,-1.95993 -0.0197,-1.44441 -0.0362,-1.8882 -0.0743,-1.99515 -0.0678,-0.19011 -0.067,-0.75163 0.001,-0.92222 0.0446,-0.11155 0.0519,-0.3249 0.0441,-1.29912 -0.009,-1.16565 -0.009,-1.16565 -0.32681,-1.08709 -0.37907,0.0938 -0.41482,0.0759 -0.36637,-0.18346 0.0455,-0.24373 0.13762,-0.34406 0.43621,-0.47529 0.2653,-0.11659 0.2653,-0.11659 0.2653,-2.60814 0,-2.28445 0.006,-2.53923 0.0711,-3.06524 0.0492,-0.39681 0.0935,-0.61752 0.14362,-0.71586 0.36634,-0.71808 1.79326,-1.3776 3.34835,-1.54758 0.43433,-0.0475 1.72681,-0.0594 2.25777,-0.0209 1.58776,0.11528 3.16082,0.80938 3.5377,1.56099 0.0652,0.13007 0.10477,0.31454 0.16172,0.75426 0.0707,0.54624 0.0754,0.73436 0.0753,3.05506 -3e-5,2.47297 -3e-5,2.47297 0.229,2.57031 0.22846,0.0971 0.44124,0.28652 0.44124,0.3928 0,0.0296 0.0151,0.0445 0.0335,0.0331 0.0473,-0.0292 0.1076,0.0975 0.1076,0.226 0,0.10675 -0.002,0.10801 -0.14993,0.0898 -0.0825,-0.0102 -0.26502,-0.0483 -0.40569,-0.0848 -0.25576,-0.0663 -0.25576,-0.0663 -0.25673,0.43289 -5e-4,0.27455 -0.0103,0.79462 -0.0217,1.1557 -0.0189,0.59964 -0.0151,0.66513 0.0444,0.75592 0.0497,0.0758 0.0683,0.18541 0.0786,0.46191 0.0116,0.314 0.003,0.38312 -0.0611,0.51641 -0.0729,0.15065 -0.0745,0.1931 -0.0745,2.01897 0,1.82587 0.002,1.86832 0.0745,2.01897 0.0645,0.13329 0.0727,0.20241 0.0611,0.51641 -0.01,0.26696 -0.0295,0.38709 -0.0745,0.45573 -0.0551,0.084 -0.0612,0.22072 -0.062,1.39091 -7e-4,1.04629 -0.0204,1.58662 -0.10137,2.78897 -0.10045,1.49126 -0.10045,1.49126 -0.21233,1.71853 -0.11846,0.24062 -0.27558,0.39586 -0.52146,0.51522 -0.17574,0.0853 -0.72475,0.15349 -1.66604,0.20687 -0.57067,0.0324 -3.68842,0.0413 -4.3594,0.0124 z m -0.30702,-0.24898 c -0.0772,-0.183 -0.14713,-0.22056 -0.66601,-0.3577 -0.68438,-0.18088 -0.74368,-0.21499 -0.96408,-0.55447 -0.1019,-0.15697 -0.21452,-0.22554 -0.37043,-0.22554 -0.0994,0 -0.0994,0 -0.0662,0.18256 0.0457,0.25144 0.15045,0.46025 0.31696,0.63182 0.20069,0.20681 0.43752,0.30276 0.85731,0.34737 0.53029,0.0563 0.5857,0.0612 0.76653,0.0673 0.16681,0.006 0.16681,0.006 0.12589,-0.0914 z m 5.49285,0.0448 c 0.27164,-0.0279 0.56921,-0.0767 0.66126,-0.10838 0.34686,-0.11938 0.66176,-0.51777 0.71659,-0.9066 0.0236,-0.16757 0.0236,-0.16757 -0.0991,-0.16757 -0.15071,0 -0.27297,0.0917 -0.39116,0.29338 -0.14054,0.23981 -0.30977,0.33279 -0.85645,0.47055 -0.26635,0.0671 -0.51414,0.13802 -0.55064,0.15755 -0.0633,0.0339 -0.2033,0.23106 -0.20358,0.28679 -2e-4,0.0378 0.16126,0.032 0.72306,-0.0257 z m -1.5875,-0.56753 c 0.7906,-0.0771 1.62124,-0.2481 1.89617,-0.39027 0.12735,-0.0658 0.11475,-0.0882 -0.29186,-0.51785 -0.32245,-0.34072 -0.32245,-0.34072 -0.42452,-0.28794 -0.4394,0.22723 -2.03064,0.36521 -3.43674,0.29802 -0.86472,-0.0413 -1.32652,-0.10305 -1.76102,-0.23539 -0.31381,-0.0956 -0.31381,-0.0956 -0.51153,0.11564 -0.10874,0.11616 -0.26615,0.29338 -0.34979,0.39382 -0.15207,0.18261 -0.15207,0.18261 -0.0176,0.23945 0.5193,0.21961 1.66958,0.40369 2.83318,0.45342 0.46193,0.0197 1.51592,-0.0154 2.06375,-0.0689 z m -5.08361,-2.54573 c 0.14533,-0.0918 0.28008,-0.20162 0.29946,-0.24414 0.038,-0.0833 0.0652,-2.74985 0.0285,-2.78658 -0.0117,-0.0117 -0.23074,0.0454 -0.4868,0.12689 -0.46556,0.14814 -0.46556,0.14814 -0.44056,1.37127 0.0248,1.21479 0.0478,1.46769 0.14716,1.62001 0.0751,0.11513 0.1562,0.0994 0.45223,-0.0874 z m 7.61942,0.0691 c 0.10209,-0.19742 0.12716,-0.52049 0.12869,-1.65821 8e-4,-0.63032 -0.008,-1.15587 -0.0199,-1.1679 -0.0338,-0.0343 -0.89955,-0.30871 -0.91751,-0.29075 -0.0349,0.0349 -0.0146,2.60109 0.0216,2.73136 0.0316,0.11382 0.0784,0.1605 0.30848,0.30806 0.31447,0.20163 0.40677,0.21656 0.47871,0.0774 z m -7.71287,-3.32714 c 0.4322,-0.14404 0.4322,-0.14404 0.4322,-0.51153 0,-0.3675 0,-0.3675 -0.47625,-0.3675 -0.47625,0 -0.47625,0 -0.47625,0.51153 0,0.38538 0.0109,0.51153 0.044,0.51153 0.0242,0 0.23854,-0.0648 0.47625,-0.14403 z m 7.87581,-0.3675 c 0,-0.51153 0,-0.51153 -0.49389,-0.51153 -0.49388,0 -0.49388,0 -0.49388,0.36822 0,0.36821 0,0.36821 0.43215,0.50787 0.23768,0.0768 0.45993,0.1413 0.49389,0.14331 0.0561,0.003 0.0617,-0.0428 0.0617,-0.50787 z m -7.452,-1.98437 c -0.009,-1.33174 -0.009,-1.33174 -0.4855,-1.39028 -0.26193,-0.0322 -0.48214,-0.0528 -0.48934,-0.0457 -0.007,0.007 -10e-4,0.63268 0.0131,1.39027 0.0262,1.37744 0.0262,1.37744 0.49859,1.37744 0.47243,0 0.47243,0 0.46319,-1.33173 z m 7.452,-0.0641 c 0,-1.31238 -0.004,-1.39482 -0.0617,-1.37874 -0.034,0.009 -0.24579,0.0366 -0.47074,0.0604 -0.409,0.0433 -0.409,0.0433 -0.43208,0.91132 -0.0127,0.4774 -0.0231,1.07836 -0.0232,1.33544 -7e-5,0.46743 -7e-5,0.46743 0.49381,0.46743 0.49389,0 0.49389,0 0.49389,-1.39585 z m -7.45612,-2.35241 c -0.0125,-0.25709 -0.0249,-0.72143 -0.0275,-1.03188 -0.007,-0.80093 -0.12303,-1.52297 -0.38524,-2.39007 -0.072,-0.23812 -0.072,-0.23812 -0.33921,-0.23812 -0.2672,0 -0.2672,0 -0.24175,1.84326 0.014,1.0138 0.0358,1.85388 0.0484,1.86686 0.0296,0.0304 0.89474,0.41513 0.93647,0.41641 0.0182,6e-4 0.0219,-0.1976 0.009,-0.46646 z m 6.98763,0.2693 c 0.24797,-0.10897 0.46158,-0.20819 0.4747,-0.22048 0.0131,-0.0123 0.029,-0.85243 0.0353,-1.86696 0.0114,-1.8446 0.0114,-1.8446 -0.25116,-1.83445 -0.26259,0.0102 -0.26259,0.0102 -0.32718,0.22182 -0.13683,0.4484 -0.27762,1.07504 -0.32892,1.46403 -0.0541,0.41019 -0.11714,2.43417 -0.0758,2.43417 0.0122,0 0.22513,-0.0892 0.4731,-0.19813 z m -6.33323,-3.04551 c 1.12086,-0.16393 1.50371,-0.1927 2.58603,-0.19434 1.09928,-0.002 1.40952,0.0204 2.51746,0.17915 0.33685,0.0483 0.61585,0.0829 0.61998,0.077 0.004,-0.006 0.0352,-0.14572 0.0691,-0.31064 0.0339,-0.16492 0.18022,-0.73567 0.32525,-1.26832 0.26289,-0.96545 0.2635,-0.96874 0.19753,-1.05833 -0.20102,-0.273 -1.12892,-0.5677 -2.30055,-0.73064 -0.62209,-0.0865 -2.23579,-0.0865 -2.8575,5e-5 -0.87597,0.12194 -1.56767,0.30371 -2.00708,0.52744 -0.38147,0.19424 -0.37885,0.14292 -0.0665,1.30216 0.14797,0.54908 0.29513,1.12136 0.32702,1.27174 0.0319,0.15037 0.0719,0.2734 0.0889,0.2734 0.017,0 0.24215,-0.0309 0.5003,-0.0686 z m -1.68837,-6.88776 c 0.0356,-0.30057 0.17813,-0.54317 0.51422,-0.87527 0.36246,-0.35815 0.78065,-0.61696 1.23264,-0.76285 0.31433,-0.10145 0.31433,-0.10145 0.29703,-0.21127 -0.01,-0.0604 8.6e-4,-0.14374 0.0231,-0.18521 0.0222,-0.0415 0.0257,-0.0754 0.008,-0.0754 -0.13567,0 -0.7375,0.21878 -1.11644,0.40586 -0.88446,0.43664 -1.14614,0.75073 -1.14614,1.37567 0,0.46013 0.14271,0.70965 0.18785,0.32846 z m 8.72623,0.0393 c 0.0597,-0.17134 0.0556,-0.5522 -0.008,-0.7673 -0.10916,-0.36758 -0.59117,-0.7632 -1.32148,-1.08465 -0.30014,-0.13211 -0.88057,-0.31047 -0.91107,-0.27997 -0.009,0.009 0.004,0.0405 0.0287,0.0703 0.0269,0.0324 0.0372,0.10145 0.0257,0.1723 -0.0192,0.11823 -0.0192,0.11823 0.19209,0.17697 0.45981,0.12784 1.0934,0.51836 1.42889,0.88073 0.22502,0.24305 0.38277,0.54618 0.41817,0.80353 0.0276,0.2007 0.0835,0.21137 0.14732,0.0281 z m -5.95114,-2.03335 c 0.29064,-0.0464 0.61358,-0.0591 1.49931,-0.059 1.10421,1.1e-4 1.25955,0.0108 2.04611,0.14063 0.0971,0.016 0.13011,0.0119 0.10583,-0.0133 -0.0988,-0.10256 -1.24009,-0.21881 -2.15194,-0.2192 -0.88079,-3.8e-4 -2.01862,0.11746 -2.11667,0.2192 -0.0243,0.0252 0.009,0.0295 0.10584,0.0137 0.0776,-0.0126 0.30779,-0.0495 0.51152,-0.082 z m -0.11113,-0.13268 c 1.05291,-0.16264 2.76964,-0.12687 3.67419,0.0766 0.0618,0.0139 0.0777,0.009 0.0529,-0.018 -0.0194,-0.0208 -0.21784,-0.0714 -0.44098,-0.11236 -0.57725,-0.10601 -2.09445,-0.13702 -2.82222,-0.0577 -0.63649,0.0694 -0.9525,0.12568 -0.9525,0.16966 0,0.0186 0.0278,0.0259 0.0617,0.0161 0.034,-0.01 0.22603,-0.0432 0.42685,-0.0742 z m 7.21531,8.9773 c 0,-0.22314 0.006,-0.31442 0.0127,-0.20285 0.007,0.11156 0.007,0.29413 0,0.40569 -0.007,0.11157 -0.0127,0.0203 -0.0127,-0.20284 z"
       id="path1" /></g></svg>
