<?xml version="1.0" encoding="UTF-8" standalone="no"?>
<!-- Created with Inkscape (http://www.inkscape.org/) -->

<svg
   version="1.1"
   id="svg1"
   width="195.84"
   height="195.84"
   viewBox="0 0 195.84 195.84"
   sodipodi:docname="man_walking_right.svg"
   inkscape:version="1.4 (e7c3feb100, 2024-10-09)"
   xmlns:inkscape="http://www.inkscape.org/namespaces/inkscape"
   xmlns:sodipodi="http://sodipodi.sourceforge.net/DTD/sodipodi-0.dtd"
   xmlns="http://www.w3.org/2000/svg"
   xmlns:svg="http://www.w3.org/2000/svg">
  <defs
     id="defs1" />
  <sodipodi:namedview
     id="namedview1"
     pagecolor="#ffffff"
     bordercolor="#000000"
     borderopacity="0.25"
     inkscape:showpageshadow="2"
     inkscape:pageopacity="0.0"
     inkscape:pagecheckerboard="0"
     inkscape:deskcolor="#d1d1d1"
     inkscape:zoom="4.4832517"
     inkscape:cx="97.808472"
     inkscape:cy="97.919998"
     inkscape:window-width="1920"
     inkscape:window-height="1131"
     inkscape:window-x="0"
     inkscape:window-y="0"
     inkscape:window-maximized="1"
     inkscape:current-layer="g1" />
  <g
     inkscape:groupmode="layer"
     inkscape:label="man walking right"
     id="g1">
    <title
       id="title1">man walking right</title>
    <path
       style="fill:#000000"
       d="m 118.5167,173.11065 c -1.69668,-0.52412 -4.06548,-2.32493 -4.8284,-3.67065 -0.39911,-0.704 -1.74436,-4.448 -2.98945,-8.32 -1.24509,-3.872 -3.23817,-9.992 -4.42907,-13.6 l -2.16526,-6.56 -6.988827,-8.96 c -7.475608,-9.58408 -11.597287,-14.89704 -13.823347,-17.81867 -1.81461,-2.38162 -2.374109,-4.03367 -2.364369,-6.98133 0.0044,-1.32 0.587688,-7.933665 1.29628,-14.69703 0.708593,-6.763366 1.228161,-12.357219 1.154596,-12.430784 -0.07357,-0.07357 -0.993311,0.324383 -2.043879,0.88433 -1.890927,1.007853 -1.951218,1.084541 -5.999293,7.630784 -7.784651,12.58875 -7.543272,12.26258 -9.895682,13.37192 -3.550535,1.67435 -7.517095,0.34386 -9.607119,-3.222502 -0.953595,-1.627186 -1.134263,-4.503653 -0.393626,-6.267023 0.906818,-2.159028 12.735583,-20.736425 13.796708,-21.668105 0.592289,-0.520037 4.948497,-2.969602 9.680462,-5.44348 16.271385,-8.506698 15.338862,-8.078111 17.576406,-8.078111 1.688029,0 2.387247,0.197297 4.56867,1.289135 4.02169,2.012918 6.36678,5.006154 7.12173,9.090046 0.29907,1.617821 5.6386,16.770417 6.37045,18.078162 0.14862,0.265566 3.91844,3.587678 8.37738,7.382471 9.22505,7.850997 9.6807,8.409017 9.6807,11.855617 0,2.6239 -1.04493,4.60127 -3.22364,6.10026 -1.19073,0.81925 -1.88693,1.04545 -3.59341,1.16755 -2.77394,0.19847 -3.70305,-0.21454 -7.25428,-3.22469 -9.61607,-8.15092 -12.77126,-10.778552 -12.94257,-10.778552 -0.10615,0 -0.51763,3.302232 -0.91438,7.338292 l -0.72137,7.3383 3.47163,4.4217 c 7.77783,9.90638 11.33011,14.54019 11.90834,15.53396 0.3353,0.57626 2.73679,7.59975 5.33666,15.60775 5.08265,15.6554 5.34623,16.88298 4.20088,19.56466 -0.68341,1.6001 -2.65457,3.70833 -4.20838,4.50103 -1.46638,0.74808 -4.62352,1.0379 -6.15454,0.56496 z m -45.862535,-4.65541 c -3.700327,-1.60519 -5.982767,-5.78861 -5.160373,-9.4583 0.17722,-0.79079 2.35908,-5.60461 4.848578,-10.69737 8.897629,-18.20188 8.788435,-17.95527 9.732118,-21.97957 0.484937,-2.068 0.932136,-3.76 0.993774,-3.76 0.06164,0 0.637838,0.828 1.280443,1.84 2.453596,3.86402 8.330637,11.45006 10.334633,13.33987 0.548163,0.51692 0.99666,1.13806 0.99666,1.3803 0,0.49384 -1.054893,2.71929 -7.92543,16.71983 -4.99477,10.17816 -5.568033,11.04525 -8.229831,12.44796 -1.552575,0.81818 -5.167235,0.90618 -6.870572,0.16728 z M 99.222278,51.209947 c -5.815536,-2.151584 -9.432082,-8.114761 -8.438681,-13.9142 0.895309,-5.226778 4.100124,-8.987894 9.011734,-10.576017 2.557229,-0.826857 6.653659,-0.556833 9.066179,0.597615 2.7929,1.336472 4.85562,3.382915 6.24654,6.197261 1.13135,2.289117 1.19861,2.59672 1.20509,5.511051 0.007,2.930546 -0.0541,3.209924 -1.19823,5.525393 -1.39041,2.813836 -3.43365,4.851574 -6.24274,6.225938 -2.46516,1.206089 -7.00914,1.409963 -9.649892,0.432959 z"
       id="path1" />
  </g>
</svg>
