<?xml version="1.0" encoding="UTF-8" standalone="no"?>
<!-- Created with Inkscape (http://www.inkscape.org/) -->

<svg
   width="8.492527mm"
   height="23.274223mm"
   viewBox="0 0 8.492527 23.274223"
   version="1.1"
   id="svg1"
   xml:space="preserve"
   inkscape:version="1.4 (e7c3feb100, 2024-10-09)"
   sodipodi:docname="truck-51893967-up.svg"
   xmlns:inkscape="http://www.inkscape.org/namespaces/inkscape"
   xmlns:sodipodi="http://sodipodi.sourceforge.net/DTD/sodipodi-0.dtd"
   xmlns="http://www.w3.org/2000/svg"
   xmlns:svg="http://www.w3.org/2000/svg"><sodipodi:namedview
     id="namedview1"
     pagecolor="#ffffff"
     bordercolor="#000000"
     borderopacity="0.25"
     inkscape:showpageshadow="2"
     inkscape:pageopacity="0.0"
     inkscape:pagecheckerboard="0"
     inkscape:deskcolor="#d1d1d1"
     inkscape:document-units="mm"
     inkscape:zoom="9.9811781"
     inkscape:cx="16.030172"
     inkscape:cy="43.982784"
     inkscape:window-width="1920"
     inkscape:window-height="1131"
     inkscape:window-x="0"
     inkscape:window-y="0"
     inkscape:window-maximized="1"
     inkscape:current-layer="layer1" /><defs
     id="defs1" /><g
     inkscape:label="Layer 1"
     inkscape:groupmode="layer"
     id="layer1"
     transform="translate(-101.77544,-135.34912)"><path
       style="fill:#000000;stroke-width:0.1"
       d="m 102.35155,158.59074 c -0.0388,-0.0214 -0.0904,-0.0637 -0.11465,-0.0941 -0.0349,-0.0437 -0.0441,-1.373 -0.0441,-6.37892 0,-6.32365 0,-6.32365 0.0794,-6.41453 0.0794,-0.0909 0.0794,-0.0909 3.74576,-0.0904 3.66639,5e-4 3.66639,5e-4 3.74826,0.0774 0.0819,0.0769 0.0819,0.0769 0.0819,6.41686 0,6.18953 -0.002,6.34191 -0.0674,6.42322 -0.0674,0.0833 -0.0674,0.0833 -3.71298,0.0913 -2.60231,0.006 -3.66574,-0.003 -3.71611,-0.0308 z m 0.75847,-13.64833 c 0,-0.60073 0,-0.60073 2.91042,-0.59655 2.91042,0.004 2.91042,0.004 2.91042,0.60074 0,0.59655 0,0.59655 -2.91042,0.59655 -2.91042,0 -2.91042,0 -2.91042,-0.60074 z m -0.10779,-0.73635 c -0.10387,-0.10387 -0.10387,-0.10387 -0.10374,-1.29721 1.7e-4,-1.54776 -0.0401,-1.47072 0.83312,-1.59553 0.80065,-0.11445 1.39317,-0.1543 2.28883,-0.15395 0.89907,3.5e-4 1.49439,0.0404 2.28883,0.15395 0.54253,0.0776 0.6628,0.12308 0.76412,0.28925 0.0647,0.10612 0.0689,0.18493 0.069,1.30628 10e-5,1.19334 10e-5,1.19334 -0.10082,1.29429 -0.10096,0.10095 -0.10096,0.10095 -3.01821,0.10388 -2.91725,0.003 -2.91725,0.003 -3.02113,-0.10096 z m -0.31298,-0.48448 c -0.069,-0.0877 -0.0731,-0.13702 -0.0728,-0.87312 2.8e-4,-0.74958 -0.004,-0.79839 -0.10908,-1.24459 -0.10095,-0.4287 -0.11629,-0.46616 -0.19941,-0.48703 -0.0495,-0.0124 -0.1028,-0.01 -0.11838,0.006 -0.0156,0.0156 -0.11735,0.0229 -0.22614,0.0162 -0.1613,-0.01 -0.19576,-0.023 -0.18666,-0.0706 0.008,-0.0434 0.0653,-0.064 0.22242,-0.0805 0.37538,-0.0393 0.33666,0.22564 0.32946,-2.25469 -0.006,-2.08288 -0.009,-2.18141 -0.0711,-2.19759 -0.0581,-0.0152 -0.0647,-0.0588 -0.0647,-0.42668 0,-0.39109 0.004,-0.41134 0.0794,-0.44459 0.0436,-0.0191 0.36341,-0.0982 0.71057,-0.17563 0.63121,-0.1408 0.63121,-0.1408 3.05153,-0.1394 2.42033,0.001 2.42033,0.001 3.08513,0.15326 0.38873,0.0888 0.67783,0.17244 0.69619,0.20144 0.0173,0.0273 0.0316,0.21946 0.0319,0.42708 4e-4,0.2944 -0.0108,0.38381 -0.0509,0.40626 -0.044,0.0246 -0.0529,0.34299 -0.0617,2.20625 -0.0103,2.17747 -0.0103,2.17747 0.092,2.21311 0.0563,0.0196 0.17185,0.0356 0.25687,0.0356 0.1068,0 0.16106,0.0168 0.17549,0.0544 0.0115,0.0299 0.0115,0.0638 -10e-6,0.0753 -0.0327,0.0327 -0.35358,0.0343 -0.39896,0.002 -0.0224,-0.016 -0.0799,-0.0192 -0.12776,-0.007 -0.0777,0.0195 -0.0977,0.0642 -0.18636,0.41603 -0.0913,0.36255 -0.1009,0.4642 -0.11918,1.26643 -0.0191,0.84103 -0.0227,0.87505 -0.0983,0.95054 -0.0431,0.0431 -0.0859,0.0708 -0.095,0.0617 -0.009,-0.009 -0.0236,-0.73055 -0.0322,-1.60318 -0.0124,-1.25865 -0.0268,-1.63398 -0.0697,-1.81589 -0.10082,-0.42795 -1.35675,-4.30672 -1.41553,-4.37167 -0.0966,-0.10672 -0.86091,-0.19681 -1.66056,-0.19573 -0.79186,0.001 -1.6194,0.0925 -1.72118,0.19007 -0.0672,0.0644 -1.33011,3.96711 -1.42011,4.38846 -0.0406,0.1902 -0.0513,0.57159 -0.0513,1.82562 0,1.706 -7.3e-4,1.7123 -0.17383,1.49224 z m -0.32006,-2.69399 c 0,-0.0194 -0.0247,-0.0353 -0.055,-0.0353 -0.0302,0 -0.0452,0.0159 -0.0332,0.0353 0.012,0.0194 0.0367,0.0353 0.055,0.0353 0.0183,0 0.0332,-0.0159 0.0332,-0.0353 z m 7.39069,0 c 0.012,-0.0194 -0.003,-0.0353 -0.0332,-0.0353 -0.0303,0 -0.055,0.0159 -0.055,0.0353 0,0.0194 0.0149,0.0353 0.0332,0.0353 0.0183,0 0.043,-0.0159 0.055,-0.0353 z m -6.33236,-4.30389 c -0.0291,-0.0188 -0.13229,-0.0342 -0.2293,-0.0342 -0.097,0 -0.2002,0.0154 -0.22931,0.0342 -0.0366,0.0236 0.0342,0.0342 0.22931,0.0342 0.19507,0 0.26588,-0.0106 0.2293,-0.0342 z m 5.64445,0 c -0.0698,-0.0451 -0.41309,-0.0451 -0.44098,0 -0.0138,0.0223 0.073,0.0351 0.23605,0.0347 0.1795,-3.8e-4 0.24176,-0.0109 0.20493,-0.0347 z m -5.49385,-0.0937 c -0.0239,-0.01 -0.0715,-0.0102 -0.10583,-0.001 -0.0343,0.009 -0.0148,0.0168 0.0434,0.0176 0.0582,7.2e-4 0.0863,-0.007 0.0624,-0.0163 z m 5.00945,0 c -0.0239,-0.01 -0.0715,-0.0102 -0.10583,-0.001 -0.0343,0.009 -0.0148,0.0168 0.0434,0.0176 0.0582,7.2e-4 0.0863,-0.007 0.0624,-0.0163 z m -5.68798,4.55117 c 6.8e-4,-0.21059 0.023,-0.50528 0.0497,-0.65486 0.0549,-0.30759 1.34464,-4.39664 1.40772,-4.46294 0.20966,-0.22035 3.11164,-0.22285 3.32456,-0.003 0.0244,0.0252 0.13983,0.34746 0.25651,0.71611 0.11669,0.36865 0.39477,1.24178 0.61797,1.94028 0.56946,1.78215 0.55249,1.71364 0.57657,2.32793 0.0207,0.52876 0.0207,0.52876 -0.10555,0.41789 -0.14474,-0.12708 -0.14685,-0.12763 -0.85471,-0.22182 -1.39424,-0.18551 -2.84004,-0.19227 -4.17318,-0.0195 -0.73364,0.0951 -0.85126,0.12354 -0.98099,0.23744 -0.11985,0.10524 -0.11985,0.10524 -0.11862,-0.27765 z m 2.35075,-0.19364 c 0.64076,-0.0348 0.97619,-0.0354 1.55222,-0.003 0.67567,0.0382 1.53196,0.12462 1.67692,0.16922 0.0703,0.0216 0.28395,-0.24744 0.26703,-0.33621 -0.0239,-0.12553 -1.10949,-0.24891 -2.40857,-0.27375 -1.00191,-0.0191 -1.53175,0.007 -2.43417,0.1186 -0.67431,0.0836 -0.69906,0.10052 -0.51668,0.35229 0.10068,0.13899 0.10068,0.13899 0.57327,0.078 0.25992,-0.0335 0.84041,-0.081 1.28998,-0.10535 z"
       id="path1" /></g></svg>
