<?xml version="1.0" encoding="UTF-8" standalone="no"?>
<!-- Created with Inkscape (http://www.inkscape.org/) -->

<svg
   width="23.232668mm"
   height="9.6578054mm"
   viewBox="0 0 23.232668 9.6578057"
   version="1.1"
   id="svg1"
   xml:space="preserve"
   inkscape:version="1.4 (e7c3feb100, 2024-10-09)"
   sodipodi:docname="truck-51893967-right.svg"
   xmlns:inkscape="http://www.inkscape.org/namespaces/inkscape"
   xmlns:sodipodi="http://sodipodi.sourceforge.net/DTD/sodipodi-0.dtd"
   xmlns="http://www.w3.org/2000/svg"
   xmlns:svg="http://www.w3.org/2000/svg"><sodipodi:namedview
     id="namedview1"
     pagecolor="#ffffff"
     bordercolor="#000000"
     borderopacity="0.25"
     inkscape:showpageshadow="2"
     inkscape:pageopacity="0.0"
     inkscape:pagecheckerboard="0"
     inkscape:deskcolor="#d1d1d1"
     inkscape:document-units="mm"
     inkscape:zoom="13.802763"
     inkscape:cx="43.904254"
     inkscape:cy="18.257214"
     inkscape:window-width="1920"
     inkscape:window-height="1131"
     inkscape:window-x="0"
     inkscape:window-y="0"
     inkscape:window-maximized="1"
     inkscape:current-layer="layer1" /><defs
     id="defs1" /><g
     inkscape:label="Layer 1"
     inkscape:groupmode="layer"
     id="layer1"
     transform="translate(-95.704962,-146.38336)"><path
       style="fill:#000000;stroke-width:0.1"
       d="m 99.305589,156.01346 c -0.71557,-0.12353 -1.33227,-0.68244 -1.537066,-1.39305 -0.04091,-0.14195 -0.06034,-0.33018 -0.05899,-0.57144 0.002,-0.35978 0.002,-0.35978 -0.197563,-0.39856 -0.109765,-0.0213 -0.27036,-0.0527 -0.356876,-0.0697 -0.09361,-0.0184 -0.181945,-0.0177 -0.218167,0.002 -0.150816,0.0807 -0.383002,0.004 -0.383002,-0.12709 0,-0.0357 -0.06397,-0.0516 -0.238125,-0.0592 -0.238125,-0.0104 -0.238125,-0.0104 -0.235831,-0.13391 0.0013,-0.0679 -0.01858,-0.13617 -0.0441,-0.15168 -0.06678,-0.0406 -0.06341,-0.43396 0.0039,-0.4598 0.04495,-0.0173 0.04941,-0.0703 0.02329,-0.27705 -0.0017,-0.0133 -0.05266,-0.0292 -0.113281,-0.0353 -0.09573,-0.01 -0.119117,-0.0338 -0.177891,-0.18395 -0.06467,-0.16523 -0.06764,-0.29425 -0.06683,-2.90691 7.68e-4,-2.5062 0.0058,-2.73944 0.05989,-2.79926 0.05703,-0.063 0.276802,-0.0652 6.438853,-0.0652 6.33278,0 6.38034,5e-4 6.45037,0.0705 0.0684,0.0684 0.0708,0.12237 0.0774,1.73743 0.004,1.05758 0.014,1.44766 0.0264,1.06715 0.0123,-0.37482 0.0359,-0.62809 0.063,-0.67538 0.0608,-0.10604 0.2242,-0.15364 0.52748,-0.15364 0.28665,0 0.47873,0.0611 0.53757,0.17108 0.0227,0.0425 0.0381,0.29887 0.0381,0.6359 0,0.3384 0.0141,0.57342 0.0353,0.58649 0.0194,0.012 0.0353,-4e-5 0.0353,-0.0267 0,-0.18143 0.24939,-2.15205 0.27946,-2.20824 0.0741,-0.13839 0.24436,-0.1583 1.14816,-0.13424 0.93907,0.025 1.50837,0.0881 1.67318,0.18547 0.13545,0.08 0.14778,0.10659 0.49741,1.07204 0.15801,0.43631 0.29014,0.79572 0.29363,0.7987 0.003,0.003 0.20479,0.024 0.44732,0.0467 0.65376,0.0612 1.19287,0.13339 1.74625,0.23372 0.88561,0.16057 2.11924,0.49386 2.20343,0.5953 0.12193,0.14691 0.21032,1.11542 0.15216,1.66724 -0.0305,0.28969 -0.0305,0.28969 0.23569,0.29986 0.26622,0.0102 0.26622,0.0102 0.26622,0.52767 0,0.28462 -0.009,0.52626 -0.0196,0.53699 -0.0108,0.0107 -0.18539,-0.0272 -0.38805,-0.0843 -0.20266,-0.0571 -0.38802,-0.10427 -0.4119,-0.10483 -0.0239,-6e-4 -0.0534,0.0387 -0.0656,0.0872 -0.0211,0.0841 -0.0342,0.0882 -0.2829,0.0882 -0.22758,0 -0.26076,0.008 -0.26076,0.0635 0,0.0867 -0.0684,0.14817 -0.1649,0.14817 -0.0537,0 -0.0986,0.0354 -0.13555,0.10699 -0.0704,0.13608 -0.10855,0.11151 -0.13866,-0.0892 -0.0426,-0.28411 -0.28684,-0.71197 -0.56358,-0.98729 -0.39775,-0.39572 -0.85705,-0.58267 -1.43147,-0.58267 -0.57244,0 -1.0316,0.1866 -1.43199,0.58198 -0.27688,0.27342 -0.51984,0.69972 -0.56307,0.98798 -0.0301,0.20076 -0.0683,0.22533 -0.13865,0.0892 -0.037,-0.0716 -0.0819,-0.10699 -0.13556,-0.10699 -0.0957,0 -0.1649,-0.0614 -0.1649,-0.14623 0,-0.048 -0.0355,-0.0639 -0.16098,-0.0723 -0.16098,-0.0108 -0.16098,-0.0108 0.56171,-0.96326 0.45646,-0.60161 0.76955,-0.9821 0.84991,-1.03286 0.264,-0.16676 0.43536,-0.18349 1.78949,-0.17473 1.21352,0.008 1.26213,0.0108 1.35698,0.0816 0.0963,0.0719 0.11776,0.1191 0.45551,1.00251 0.0556,0.14552 0.10608,0.24077 0.1121,0.21167 0.0193,-0.0931 -0.40507,-1.13611 -0.50146,-1.23253 -0.0904,-0.0904 -0.0904,-0.0904 -1.46096,-0.10038 -1.33396,-0.01 -1.37609,-0.008 -1.57582,0.0668 -0.28256,0.10572 -0.40532,0.24145 -1.23245,1.36265 -0.70556,0.9564 -0.70556,0.9564 -1.52577,0.9591 -0.82021,0.003 -0.82021,0.003 -0.82021,-0.0855 0,-0.0745 -0.0165,-0.0882 -0.10583,-0.0882 -0.10583,0 -0.10583,0 -0.10583,0.22723 0,0.12497 -0.0163,0.23732 -0.0363,0.24966 -0.02,0.0123 -0.80021,0.0223 -1.73386,0.0221 -1.8478,-3e-4 -1.75603,0.0103 -1.75708,-0.20421 -7e-4,-0.14274 -0.0466,-0.15726 -0.32147,-0.1016 -0.12423,0.0252 -0.28226,0.0556 -0.35117,0.0677 -0.1253,0.0219 -0.1253,0.0219 -0.10245,0.22448 0.0907,0.80442 -0.35641,1.61311 -1.08085,1.95476 -0.88446,0.41711 -1.91019,0.13946 -2.44639,-0.66222 -0.23893,-0.35723 -0.32672,-0.64537 -0.32672,-1.07234 0,-1.47205 1.54547,-2.40408 2.84679,-1.71682 0.31489,0.1663 0.64931,0.51386 0.81102,0.84289 0.076,0.15464 0.16246,0.28165 0.19979,0.2935 0.0362,0.0115 0.14906,0.006 0.2508,-0.0131 0.10173,-0.0187 0.23902,-0.0317 0.30509,-0.0289 0.0686,0.003 0.1266,-0.0138 0.13523,-0.039 0.0101,-0.0296 -0.0242,-0.0441 -0.10404,-0.0441 -0.11915,0 -0.11915,0 -0.2725,-0.59885 -0.16991,-0.66355 -0.24133,-0.80412 -0.47091,-0.92681 -0.14873,-0.0795 -0.14873,-0.0795 -3.95873,-0.0795 -2.0955,0 -3.870931,0.0129 -3.945402,0.0286 -0.08832,0.0187 -0.187657,0.0809 -0.28569,0.17893 -0.146346,0.14635 -0.154334,0.16665 -0.304549,0.77393 -0.143576,0.58044 -0.159831,0.62364 -0.234658,0.62364 -0.05081,0 -0.08039,0.0212 -0.08039,0.0575 0,0.0464 0.02468,0.0535 0.127179,0.0369 0.06995,-0.0113 0.206506,-0.006 0.303459,0.0128 0.279728,0.0531 0.324116,0.0271 0.466549,-0.27283 0.153049,-0.32228 0.498473,-0.68163 0.813785,-0.84659 1.297897,-0.67904 2.847537,0.24756 2.843297,1.70012 -0.001,0.49385 -0.10193,0.80076 -0.38588,1.17867 -0.43068,0.57318 -1.16823,0.86561 -1.875334,0.74354 z m 0.766381,-1.0457 c 0.5888,-0.27816 0.72321,-1.06398 0.26356,-1.54097 -0.371331,-0.38534 -0.949352,-0.40477 -1.341188,-0.0451 -0.489216,0.44908 -0.413637,1.22629 0.151452,1.55745 0.28762,0.16856 0.608914,0.17848 0.926176,0.0286 z m -0.731103,0.004 c -0.358799,-0.11141 -0.62024,-0.48648 -0.613852,-0.88066 0.0019,-0.11641 0.02766,-0.26838 0.05728,-0.3377 0.243619,-0.57017 0.996066,-0.74783 1.455285,-0.34361 0.2153,0.18952 0.31529,0.41117 0.31514,0.69863 -3.1e-4,0.63168 -0.595836,1.05524 -1.213857,0.86334 z m 0.333277,-0.37214 c -0.01136,-0.0184 -0.03569,-0.0241 -0.05407,-0.0128 -0.01838,0.0114 -0.02412,0.0357 -0.01276,0.0541 0.01136,0.0184 0.03569,0.0241 0.05407,0.0128 0.01838,-0.0113 0.02412,-0.0357 0.01276,-0.0541 z m -0.297999,-0.0676 c 0,-0.0194 -0.01587,-0.0353 -0.03528,-0.0353 -0.0194,0 -0.03528,0.0159 -0.03528,0.0353 0,0.0194 0.01588,0.0353 0.03528,0.0353 0.0194,0 0.03528,-0.0159 0.03528,-0.0353 z m 0.599722,0 c 0,-0.0194 -0.01587,-0.0353 -0.03528,-0.0353 -0.0194,0 -0.03528,0.0159 -0.03528,0.0353 0,0.0194 0.01588,0.0353 0.03528,0.0353 0.0194,0 0.03528,-0.0159 0.03528,-0.0353 z m -0.09133,-0.21437 c 0.159773,-0.18988 0.105055,-0.4331 -0.118247,-0.52559 -0.329264,-0.13639 -0.601015,0.2503 -0.36937,0.52559 0.07604,0.0904 0.116851,0.10854 0.243808,0.10854 0.126957,0 0.167765,-0.0182 0.243809,-0.10854 z m -0.411476,0.003 c -0.116827,-0.0919 -0.147139,-0.2221 -0.08133,-0.34936 0.05685,-0.10994 0.118434,-0.14508 0.254203,-0.14508 0.131015,0 0.212329,0.0566 0.254293,0.17696 0.04554,0.13065 0.0066,0.25188 -0.106371,0.331 -0.107944,0.0756 -0.213122,0.0712 -0.320794,-0.0135 z m -0.292806,-0.0741 c -0.01136,-0.0184 -0.03569,-0.0241 -0.05407,-0.0128 -0.01838,0.0114 -0.02412,0.0357 -0.01276,0.0541 0.01136,0.0184 0.03569,0.0241 0.05407,0.0128 0.01838,-0.0114 0.02412,-0.0357 0.01276,-0.0541 z m 0.987775,0 c -0.0114,-0.0184 -0.0357,-0.0241 -0.0541,-0.0128 -0.0184,0.0114 -0.0241,0.0357 -0.0128,0.0541 0.0114,0.0184 0.0357,0.0241 0.0541,0.0128 0.0184,-0.0114 0.0241,-0.0357 0.0128,-0.0541 z m -0.968274,-0.31449 c 0,-0.0194 -0.02381,-0.0353 -0.05292,-0.0353 -0.0291,0 -0.05292,0.0159 -0.05292,0.0353 0,0.0194 0.02381,0.0353 0.05292,0.0353 0.0291,0 0.05292,-0.0159 0.05292,-0.0353 z m 0.987774,0 c 0,-0.0194 -0.0149,-0.0353 -0.0332,-0.0353 -0.0183,0 -0.043,0.0159 -0.055,0.0353 -0.012,0.0194 0.003,0.0353 0.0332,0.0353 0.0302,0 0.055,-0.0159 0.055,-0.0353 z m -0.811385,-0.24695 c 0,-0.0194 -0.01587,-0.0353 -0.03528,-0.0353 -0.0194,0 -0.03528,0.0159 -0.03528,0.0353 0,0.0194 0.01588,0.0353 0.03528,0.0353 0.0194,0 0.03528,-0.0159 0.03528,-0.0353 z m 0.599722,0 c 0,-0.0194 -0.01587,-0.0353 -0.03528,-0.0353 -0.0194,0 -0.03528,0.0159 -0.03528,0.0353 0,0.0194 0.01588,0.0353 0.03528,0.0353 0.0194,0 0.03528,-0.0159 0.03528,-0.0353 z m -0.282222,-0.10583 c 0,-0.0194 -0.02381,-0.0353 -0.05292,-0.0353 -0.0291,0 -0.05292,0.0159 -0.05292,0.0353 0,0.0194 0.02381,0.0353 0.05292,0.0353 0.0291,0 0.05292,-0.0159 0.05292,-0.0353 z m 4.820235,1.38168 c 0.29943,-0.15427 0.47332,-0.4297 0.49914,-0.79061 0.0217,-0.30379 -0.0528,-0.51016 -0.2667,-0.73889 -0.37405,-0.39988 -0.99406,-0.40895 -1.37423,-0.0201 -0.27548,0.28178 -0.36233,0.65384 -0.23788,1.01909 0.18532,0.54388 0.85438,0.80115 1.37967,0.5305 z m -0.76329,0.0105 c -0.49691,-0.15429 -0.76321,-0.78523 -0.53255,-1.26172 0.0977,-0.2018 0.33954,-0.42124 0.52573,-0.47703 0.35689,-0.10692 0.68896,-0.029 0.94746,0.22236 0.7,0.68063 3.2e-4,1.80857 -0.94064,1.51639 z m 0.33328,-0.37214 c -0.0114,-0.0184 -0.0357,-0.0241 -0.0541,-0.0128 -0.0184,0.0114 -0.0241,0.0357 -0.0128,0.0541 0.0114,0.0184 0.0357,0.0241 0.0541,0.0128 0.0184,-0.0114 0.0241,-0.0357 0.0128,-0.0541 z m -0.298,-0.0675 c 0,-0.0194 -0.0159,-0.0353 -0.0353,-0.0353 -0.0194,0 -0.0353,0.0159 -0.0353,0.0353 0,0.0194 0.0159,0.0353 0.0353,0.0353 0.0194,0 0.0353,-0.0159 0.0353,-0.0353 z m 0.59972,0 c 0,-0.0194 -0.0159,-0.0353 -0.0353,-0.0353 -0.0194,0 -0.0353,0.0159 -0.0353,0.0353 0,0.0194 0.0159,0.0353 0.0353,0.0353 0.0194,0 0.0353,-0.0159 0.0353,-0.0353 z m -0.0913,-0.21437 c 0.24415,-0.29017 -0.0623,-0.6848 -0.39723,-0.51158 -0.20393,0.10545 -0.24353,0.32958 -0.0904,0.51158 0.076,0.0904 0.11685,0.10854 0.24381,0.10854 0.12696,0 0.16776,-0.0182 0.24381,-0.10854 z m -0.39694,0.0168 c -0.11295,-0.0791 -0.15191,-0.20035 -0.10637,-0.331 0.042,-0.12038 0.12328,-0.17696 0.2543,-0.17696 0.13576,0 0.19735,0.0351 0.2542,0.14508 0.0658,0.12726 0.0355,0.25747 -0.0813,0.34936 -0.10767,0.0847 -0.21285,0.0891 -0.3208,0.0135 z m -0.30734,-0.0876 c -0.0114,-0.0184 -0.0357,-0.0241 -0.0541,-0.0128 -0.0184,0.0114 -0.0241,0.0357 -0.0128,0.0541 0.0113,0.0184 0.0357,0.0241 0.0541,0.0128 0.0184,-0.0114 0.0241,-0.0357 0.0128,-0.0541 z m 0.98777,0 c -0.0113,-0.0184 -0.0357,-0.0241 -0.0541,-0.0128 -0.0184,0.0114 -0.0241,0.0357 -0.0128,0.0541 0.0114,0.0184 0.0357,0.0241 0.0541,0.0128 0.0184,-0.0114 0.0241,-0.0357 0.0128,-0.0541 z m -0.98591,-0.31449 c -0.012,-0.0194 -0.0367,-0.0353 -0.055,-0.0353 -0.0183,0 -0.0332,0.0159 -0.0332,0.0353 0,0.0194 0.0247,0.0353 0.055,0.0353 0.0303,0 0.0452,-0.0159 0.0332,-0.0353 z m 1.00542,0 c 0,-0.0194 -0.0149,-0.0353 -0.0332,-0.0353 -0.0183,0 -0.043,0.0159 -0.055,0.0353 -0.012,0.0194 0.003,0.0353 0.0332,0.0353 0.0302,0 0.055,-0.0159 0.055,-0.0353 z m -0.81139,-0.24695 c 0,-0.0194 -0.0159,-0.0353 -0.0353,-0.0353 -0.0194,0 -0.0353,0.0159 -0.0353,0.0353 0,0.0194 0.0159,0.0353 0.0353,0.0353 0.0194,0 0.0353,-0.0159 0.0353,-0.0353 z m 0.59972,0 c 0,-0.0194 -0.0159,-0.0353 -0.0353,-0.0353 -0.0194,0 -0.0353,0.0159 -0.0353,0.0353 0,0.0194 0.0159,0.0353 0.0353,0.0353 0.0194,0 0.0353,-0.0159 0.0353,-0.0353 z m -0.28222,-0.10583 c 0,-0.0194 -0.0238,-0.0353 -0.0529,-0.0353 -0.0291,0 -0.0529,0.0159 -0.0529,0.0353 0,0.0194 0.0238,0.0353 0.0529,0.0353 0.0291,0 0.0529,-0.0159 0.0529,-0.0353 z m 13.61722,-1.39347 c 0,-0.0268 -0.0159,-0.0586 -0.0353,-0.0705 -0.0201,-0.0124 -0.0353,0.018 -0.0353,0.0705 0,0.0526 0.0152,0.083 0.0353,0.0706 0.0194,-0.012 0.0353,-0.0437 0.0353,-0.0706 z m -0.0905,-0.45861 c 0.0263,-0.14048 -0.007,-0.37042 -0.0545,-0.37042 -0.0172,0 -0.0314,0.11113 -0.0314,0.24695 0,0.26187 0.0472,0.32971 0.0859,0.12347 z m -6.47773,-1.61396 c -0.0101,-0.10467 -0.0226,-0.1156 -0.14335,-0.1256 -0.13015,-0.0108 -0.13229,-0.009 -0.13229,0.11465 0,0.12335 0.003,0.12561 0.14335,0.12561 0.14047,0 0.14312,-0.002 0.13229,-0.11466 z m 2.57381,-0.74748 c 0.0134,-0.0134 -0.42895,-1.29686 -0.4698,-1.36296 -0.03,-0.0486 -0.22771,0.0409 -0.22757,0.10306 1e-4,0.0587 0.39647,1.20358 0.44238,1.27786 0.0221,0.0358 0.2148,0.0222 0.25499,-0.018 z m -1.49126,-0.63717 c 0,-0.635 0,-0.635 -0.6212,-0.64461 -0.50549,-0.008 -0.62903,-2e-4 -0.66325,0.0411 -0.0607,0.0731 -0.0557,1.18798 0.005,1.22745 0.0244,0.0157 0.3221,0.0246 0.66164,0.0198 0.61736,-0.009 0.61736,-0.009 0.61736,-0.64373 z m 0.65635,0.59526 c 0.0409,-0.0492 0.0202,-0.13741 -0.14527,-0.62065 -0.18708,-0.54632 -0.23451,-0.62725 -0.36764,-0.62725 -0.0481,0 -0.0552,0.0839 -0.0552,0.65264 0,0.65264 0,0.65264 0.26026,0.65264 0.1973,0 0.27179,-0.0139 0.30789,-0.0574 z m 1.76902,6.67138 c -0.84095,-0.18268 -1.46056,-0.91124 -1.51465,-1.78095 -0.0533,-0.85779 0.44427,-1.61501 1.27651,-1.94248 0.1824,-0.0718 0.27264,-0.0833 0.65264,-0.0834 0.39516,-9e-5 0.46574,0.01 0.67946,0.0942 0.81104,0.32076 1.3026,1.08057 1.24968,1.93165 -0.0328,0.52783 -0.24423,0.97096 -0.62956,1.31967 -0.46914,0.42455 -1.10073,0.59452 -1.71408,0.46128 z m 0.82627,-1.01242 c 0.19749,-0.0915 0.39306,-0.28737 0.48302,-0.48384 0.10984,-0.23989 0.10015,-0.59745 -0.0227,-0.83635 -0.40769,-0.79299 -1.55988,-0.67396 -1.81017,0.187 -0.22683,0.78028 0.60466,1.47833 1.34983,1.13319 z m -0.65895,0.012 c -0.51977,-0.17055 -0.78952,-0.69958 -0.61615,-1.20839 0.17554,-0.51518 0.79739,-0.75446 1.29081,-0.49669 0.66109,0.34536 0.64909,1.29283 -0.0208,1.63787 -0.15206,0.0783 -0.5084,0.11495 -0.65391,0.0672 z m 0.28245,-0.37485 c 0,-0.0291 -0.0159,-0.0529 -0.0353,-0.0529 -0.0194,0 -0.0353,0.0238 -0.0353,0.0529 0,0.0291 0.0159,0.0529 0.0353,0.0529 0.0194,0 0.0353,-0.0238 0.0353,-0.0529 z m -0.29986,-0.0882 c 0.012,-0.0194 -0.003,-0.0353 -0.0332,-0.0353 -0.0302,0 -0.055,0.0159 -0.055,0.0353 0,0.0194 0.0149,0.0353 0.0332,0.0353 0.0183,0 0.043,-0.0159 0.055,-0.0353 z m 0.61736,0 c 0,-0.0194 -0.0159,-0.0353 -0.0353,-0.0353 -0.0194,0 -0.0353,0.0159 -0.0353,0.0353 0,0.0194 0.0159,0.0353 0.0353,0.0353 0.0194,0 0.0353,-0.0159 0.0353,-0.0353 z m -0.17443,-0.14215 c 0.10314,-0.0552 0.18254,-0.23454 0.15644,-0.35336 -0.0288,-0.13119 -0.20598,-0.2806 -0.33273,-0.2806 -0.11846,0 -0.27692,0.11718 -0.32325,0.23902 -0.0434,0.11409 0.0177,0.30654 0.12008,0.37823 0.0873,0.0611 0.28055,0.0696 0.37946,0.0167 z m -0.30833,-0.0332 c -0.16031,-0.0674 -0.19954,-0.28421 -0.0791,-0.4373 0.1571,-0.19972 0.49133,-0.0704 0.49133,0.19012 0,0.19355 -0.22243,0.32694 -0.41221,0.24718 z m -0.32863,-0.10692 c 0,-0.0194 -0.0159,-0.0353 -0.0353,-0.0353 -0.0194,0 -0.0353,0.0159 -0.0353,0.0353 0,0.0194 0.0159,0.0353 0.0353,0.0353 0.0194,0 0.0353,-0.0159 0.0353,-0.0353 z m 0.98778,0 c 0,-0.0194 -0.0159,-0.0353 -0.0353,-0.0353 -0.0194,0 -0.0353,0.0159 -0.0353,0.0353 0,0.0194 0.0159,0.0353 0.0353,0.0353 0.0194,0 0.0353,-0.0159 0.0353,-0.0353 z m -0.98778,-0.3175 c 0,-0.0194 -0.0159,-0.0353 -0.0353,-0.0353 -0.0194,0 -0.0353,0.0159 -0.0353,0.0353 0,0.0194 0.0159,0.0353 0.0353,0.0353 0.0194,0 0.0353,-0.0159 0.0353,-0.0353 z m 0.98778,0 c 0,-0.0194 -0.0159,-0.0353 -0.0353,-0.0353 -0.0194,0 -0.0353,0.0159 -0.0353,0.0353 0,0.0194 0.0159,0.0353 0.0353,0.0353 0.0194,0 0.0353,-0.0159 0.0353,-0.0353 z m -0.79375,-0.24694 c 0.012,-0.0194 -0.003,-0.0353 -0.0332,-0.0353 -0.0302,0 -0.055,0.0159 -0.055,0.0353 0,0.0194 0.0149,0.0353 0.0332,0.0353 0.0183,0 0.043,-0.0159 0.055,-0.0353 z m 0.61736,0 c 0,-0.0194 -0.0159,-0.0353 -0.0353,-0.0353 -0.0194,0 -0.0353,0.0159 -0.0353,0.0353 0,0.0194 0.0159,0.0353 0.0353,0.0353 0.0194,0 0.0353,-0.0159 0.0353,-0.0353 z m -0.3175,-0.10584 c 0,-0.0194 -0.0159,-0.0353 -0.0353,-0.0353 -0.0194,0 -0.0353,0.0159 -0.0353,0.0353 0,0.0194 0.0159,0.0353 0.0353,0.0353 0.0194,0 0.0353,-0.0159 0.0353,-0.0353 z m -13.38143,0.60855 c -0.008,-0.0146 -0.0261,-0.12171 -0.0393,-0.23813 -0.0619,-0.54683 -0.26386,-0.96341 -0.64061,-1.32128 -0.41885,-0.39787 -0.83724,-0.56608 -1.408002,-0.56608 -0.799135,0 -1.481938,0.41819 -1.828816,1.12007 -0.108966,0.22048 -0.108966,0.22048 -0.350716,0.22048 -0.213799,0 -0.239602,-0.007 -0.223168,-0.0617 0.01022,-0.034 0.07699,-0.29681 0.148373,-0.58412 0.07138,-0.2873 0.16344,-0.57305 0.204566,-0.635 0.04113,-0.0619 0.145479,-0.14834 0.231896,-0.19199 0.157121,-0.0794 0.157121,-0.0794 3.983787,-0.0794 3.80705,0 3.82744,4e-4 3.97867,0.0736 0.0836,0.0405 0.18482,0.11967 0.22493,0.17601 0.0405,0.0568 0.14123,0.36962 0.22632,0.70252 0.15338,0.6001 0.15338,0.6001 -0.0462,0.59995 -0.19961,-2e-4 -0.19961,-2e-4 -0.33182,-0.2577 -0.226,-0.44026 -0.72308,-0.85975 -1.19071,-1.00485 -0.26839,-0.0833 -0.96633,-0.0833 -1.23472,0 -0.45216,0.1403 -0.9591,0.56066 -1.17619,0.97531 -0.14034,0.26806 -0.22043,0.52961 -0.25542,0.8342 -0.0134,0.11642 -0.042,0.22333 -0.0636,0.23759 -0.0515,0.0339 -0.18968,0.0343 -0.20923,5e-4 z"
       id="path1" /></g></svg>
